<svg height="62" viewBox="0 0 72 62" width="72" xmlns="http://www.w3.org/2000/svg"><g fill="#fffeff" transform="matrix(.99755066 0 0 1.0092544 1.062347 .563009)"><path d="m30.427734.43359375a1.50015 1.50015 0 0 0 -.992187.4140625l-29.03320325 27.68554675a1.50015 1.50015 0 0 0 -.46484375 1.085938v28.763671a1.50015 1.50015 0 0 0 1.5 1.5h29.033203a1.50015 1.50015 0 0 0 1.5-1.5v-56.4492182a1.50015 1.50015 0 0 0 -1.542969-1.50000005zm-1.457031 5.00390625v51.445312h-26.033203v-26.621093z"/><path d="m68.566406.43359375a1.50015 1.50015 0 0 0 -.992187.4140625l-29.033203 27.68554675a1.50015 1.50015 0 0 0 -.464844 1.085938v28.763671a1.50015 1.50015 0 0 0 1.5 1.5h29.033203a1.50015 1.50015 0 0 0 1.5-1.5v-56.4492182a1.50015 1.50015 0 0 0 -1.542969-1.50000005zm-1.457031 5.00390625v51.445312h-26.033203v-26.621093z"/></g></svg>